# xmcd CD database file
#
# Track frame offsets:
#	150
#	17152
#	32090
#	59882
#	79047
#	91165
#	115805
#	135580
#	154915
#	175570
#
# Disc length: 2520 seconds
#
# Revision: 0
# Processed by: cddbd v1.5.1PL0 Copyright (c) Steve Scherf et al.
# Submitted via: CDex 1.50
#
DISCID=7909d60a
DTITLE=Joan Watson-Jones - One More Year...
DYEAR=1997
DGENRE=Jazz
TTITLE0=Too Marvelous for Words
TTITLE1=How Long Has This Been Going On
TTITLE2=Caravan
TTITLE3=Willow Weep for Me
TTITLE4=Blue Skies
TTITLE5=He's Funny That Way
TTITLE6=One More Year
TTITLE7=He Gave His Word
TTITLE8=I Ain't Just A Pretty Face
TTITLE9=Lover Come Back
EXTD=YEAR: 1997
EXTT0=
EXTT1=
EXTT2=
EXTT3=
EXTT4=
EXTT5=
EXTT6=
EXTT7=
EXTT8=
EXTT9=
PLAYORDER=
